{"title":"Dealin With Idiots 2013 WEBRip 480p x264 AAC - VYTO [P2PDL]","uid":8685310,"size":319578299,"categoryP":"video","categoryS":"movies","magnet":"?xt=urn:btih:6e6bb222dff20b7e74405c5efd205e83e7056244&amp;dn=Dealin+With+Idiots+2013+WEBRip+480p+x264+AAC+-+VYTO+%5BP2PDL%5D&amp;tr=udp%3A%2F%2Ftracker.openbittorrent.com%3A80&amp;tr=udp%3A%2F%2Fopen.demonii.com%3A1337&amp;tr=udp%3A%2F%2Ftracker.coppersurfer.tk%3A6969&amp;tr=udp%3A%2F%2Fexodus.desync.com%3A6969","seeders":1,"leechers":0,"uploader":"ValidusVyto","files":-1,"time":1373787452,"description":"_______ Visit us at our Semi Public Bittorrent Community ________\n  &lt;a href=&quot;\nhttp://p2pdl.com&quot; rel=&quot;nofollow&quot; target=&quot;_NEW&quot;&gt;\nhttp://p2pdl.com&lt;/a&gt;  _____________________________ &lt;a href=&quot; http://p2pdl.com&quot; rel=&quot;nofollow&quot; target=&quot;_NEW&quot;&gt; http://p2pdl.com&lt;/a&gt;\n\n\nDealin With Idiots 2013 WEBRip 480p x264 AAC - VYTO\n\n\nGenre: Comedy\nPlot: Faced with the absurd competitiveness surrounding his son's youth league\nbaseball team, Max Morris, a famous comedian, decides to get to know the colorful\nparents and coaches of the team ...\nDirector: Jeff Garlin\nStars: Jeff Garlin, Steve Agee, Jami Gertz.\nRated: N/a\n\nInfo: &lt;a href=&quot;\nhttp://www.imdb.com/title/tt2948266/&quot; rel=&quot;nofollow&quot; target=&quot;_NEW&quot;&gt;\nhttp://www.imdb.com/title/tt2948266/&lt;/a&gt;\n\nTrailer:\n\n\nFormat                         : MPEG-4\nFile size                      : 301 MiB\nDuration                       : 1h 26mn\nOverall bit rate               : 486 Kbps\nSource                         : 720p.WEB-DL.H264-brento\n\nVideo\nFormat                         : AVC\nBit rate                       : 443 Kbps\nWidth                          : 720 pixels\nHeight                         : 384 pixels\nDisplay aspect ratio           : 1.85:1\nFrame rate mode                : Constant\nFrame rate                     : 23.976 fps\nStream size                    : 275 MiB (91%)\nWriting library                : x264 core 130 r2273\n\nAudio\nFormat                         : AAC\nBit rate mode                  : Variable\nBit rate                       : 40.0 Kbps\nChannel(s)                     : 2 channels\nChannel positions              : Front: L R\nSampling rate                  : 48.0 KHz\nStream size                    : 24.8 MiB (8%)\nLanguage                       : English\n\nSubtitle                       : Yes(English)\n\n &lt;a href=&quot;\nhttp://ultraimg.com/images/d18g4.png&quot; rel=&quot;nofollow&quot; target=&quot;_NEW&quot;&gt;\nhttp://ultraimg.com/images/d18g4.png&lt;/a&gt; &lt;a href=&quot;\nhttp://ultraimg.com/images/sS0nc.png&quot; rel=&quot;nofollow&quot; target=&quot;_NEW&quot;&gt;\nhttp://ultraimg.com/images/sS0nc.png&lt;/a&gt; &lt;a href=&quot;\nhttp://ultraimg.com/images/oyRiL.png&quot; rel=&quot;nofollow&quot; target=&quot;_NEW&quot;&gt;\nhttp://ultraimg.com/images/oyRiL.png&lt;/a&gt; &lt;a href=&quot;\nhttp://ultraimg.com/images/B0axd.png&quot; rel=&quot;nofollow&quot; target=&quot;_NEW&quot;&gt;\nhttp://ultraimg.com/images/B0axd.png&lt;/a&gt; &lt;a href=&quot;\nhttp://ultraimg.com/images/Ol2yj.png&quot; rel=&quot;nofollow&quot; target=&quot;_NEW&quot;&gt;\nhttp://ultraimg.com/images/Ol2yj.png&lt;/a&gt; &lt;a href=&quot;\nhttp://ultraimg.com/images/8ehVH.png&quot; rel=&quot;nofollow&quot; target=&quot;_NEW&quot;&gt;\nhttp://ultraimg.com/images/8ehVH.png&lt;/a&gt; &lt;a href=&quot;\nhttp://ultraimg.com/images/xRfBY.png&quot; rel=&quot;nofollow&quot; target=&quot;_NEW&quot;&gt;\nhttp://ultraimg.com/images/xRfBY.png&lt;/a&gt; &lt;a href=&quot;\nhttp://ultraimg.com/images/xXGiQ.png&quot; rel=&quot;nofollow&quot; target=&quot;_NEW&quot;&gt;\nhttp://ultraimg.com/images/xXGiQ.png&lt;/a&gt;\n\n----------------------------------------------------------------------------------------------------\n\n\nEncoded using revolutionary 10bit encoding, which enables us to provide you more crispier \nand sharper images at small sizes, just make sure you follow our instructions without a fault.\nRecommend to you to use latest version of VLC player. Install K-Lite Codec Pack or shark007 codecs\nin case of any kind of problem in playback (For non-VLC Media Player users). Alternatively, install\nCore AVC codecs, the fastest decoder that there is coupled with Community Center Codec Pack and play\non Windows Media Player Classic. Check sample to be sure.\nEnjoy!\n\nEncoder Notes:Looking For Early Access To Anything You Can Provide DVDScr, R5, DVDR, BluRay, Direct\nAudio, Music Releases and Seedboxes. We require dedicated servers, so as to do more \nand fast releases of movies.\nIf You Got anything to offer please contact us at &quot;&lt;a class=&quot;__cf_email__&quot; href=&quot;/cdn-cgi/l/email-protection&quot; data-cfemail=&quot;ff8f8d98bf978a8c97d19c9092&quot;&gt;[email&amp;#160;protected]&lt;/a&gt;&lt;script cf-hash='f9e31' type=&quot;text/javascript&quot;&gt;\n/* &lt;![CDATA[ */!function(){try{var t=&quot;currentScript&quot;in document?document.currentScript:function(){for(var t=document.getElementsByTagName(&quot;script&quot;),e=t.length;e--;)if(t[e].getAttribute(&quot;cf-hash&quot;))return t[e]}();if(t&amp;&amp;t.previousSibling){var e,r,n,i,c=t.previousSibling,a=c.getAttribute(&quot;data-cfemail&quot;);if(a){for(e=&quot;&quot;,r=parseInt(a.substr(0,2),16),n=2;a.length-n;n+=2)i=parseInt(a.substr(n,2),16)^r,e+=String.fromCharCode(i);e=document.createTextNode(e),c.parentNode.replaceChild(e,c)}}}catch(u){}}();/* ]]&gt; */&lt;/script&gt;&quot;.\n\nFace book Fan Page:  \nSearch P2PDL on FB","torrent":{"xt":"urn:btih:6e6bb222dff20b7e74405c5efd205e83e7056244","amp;dn":"Dealin+With+Idiots+2013+WEBRip+480p+x264+AAC+-+VYTO+%5BP2PDL%5D","amp;tr":["udp%3A%2F%2Ftracker.openbittorrent.com%3A80","udp%3A%2F%2Fopen.demonii.com%3A1337","udp%3A%2F%2Ftracker.coppersurfer.tk%3A6969","udp%3A%2F%2Fexodus.desync.com%3A6969"],"infoHash":"6e6bb222dff20b7e74405c5efd205e83e7056244","infoHashBuffer":{"type":"Buffer","data":[110,107,178,34,223,242,11,126,116,64,92,94,253,32,94,131,231,5,98,68]},"announce":[],"urlList":[]}}